<mxfile host="app.diagrams.net" agent="Mozilla/5.0 (Windows NT 10.0; Win64; x64) AppleWebKit/537.36 (KHTML, like Gecko) Chrome/139.0.0.0 Safari/537.36" version="28.1.2">
  <diagram name="Use Case Diagram" id="72fuFjAOZo5_wXMvcRUS">
    <mxGraphModel dx="2253" dy="749" grid="1" gridSize="10" guides="1" tooltips="1" connect="1" arrows="1" fold="1" page="1" pageScale="1" pageWidth="827" pageHeight="1169" math="0" shadow="0">
      <root>
        <mxCell id="0" />
        <mxCell id="1" parent="0" />
        <mxCell id="ZVzb3n2ahq-jDzYmaS63-1" value="USE CASE" style="text;html=1;strokeColor=none;fillColor=none;align=center;verticalAlign=middle;whiteSpace=wrap;rounded=0;fontSize=16;fontStyle=1;" vertex="1" parent="1">
          <mxGeometry x="300" y="20" width="569" height="30" as="geometry" />
        </mxCell>
        <mxCell id="ZVzb3n2ahq-jDzYmaS63-2" value="Visiteur" style="shape=umlActor;verticalLabelPosition=bottom;verticalAlign=top;html=1;outlineConnect=0;" vertex="1" parent="1">
          <mxGeometry x="50" y="150" width="30" height="60" as="geometry" />
        </mxCell>
        <mxCell id="ZVzb3n2ahq-jDzYmaS63-3" value="Client" style="shape=umlActor;verticalLabelPosition=bottom;verticalAlign=top;html=1;outlineConnect=0;" vertex="1" parent="1">
          <mxGeometry x="50" y="280" width="30" height="60" as="geometry" />
        </mxCell>
        <mxCell id="ZVzb3n2ahq-jDzYmaS63-4" value="Commercial" style="shape=umlActor;verticalLabelPosition=bottom;verticalAlign=top;html=1;outlineConnect=0;" vertex="1" parent="1">
          <mxGeometry x="50" y="410" width="30" height="60" as="geometry" />
        </mxCell>
        <mxCell id="ZVzb3n2ahq-jDzYmaS63-5" value="Administrateur WordPress" style="shape=umlActor;verticalLabelPosition=bottom;verticalAlign=top;html=1;outlineConnect=0;" vertex="1" parent="1">
          <mxGeometry x="50" y="540" width="30" height="60" as="geometry" />
        </mxCell>
        <mxCell id="ZVzb3n2ahq-jDzYmaS63-6" value="Plugin Custom Price Widget" style="swimlane;whiteSpace=wrap;html=1;fontSize=14;fontStyle=1;startSize=30;" vertex="1" parent="1">
          <mxGeometry x="170" y="110" width="850" height="550" as="geometry" />
        </mxCell>
        <mxCell id="ZVzb3n2ahq-jDzYmaS63-7" value="Afficher formulaire de chiffrage" style="ellipse;whiteSpace=wrap;html=1;" vertex="1" parent="ZVzb3n2ahq-jDzYmaS63-6">
          <mxGeometry x="70" y="150" width="120" height="60" as="geometry" />
        </mxCell>
        <mxCell id="ZVzb3n2ahq-jDzYmaS63-8" value="Configurer produit (Pergola/Rideau/Brise-Vue/Voile)" style="ellipse;whiteSpace=wrap;html=1;" vertex="1" parent="ZVzb3n2ahq-jDzYmaS63-6">
          <mxGeometry x="60" y="40" width="154" height="60" as="geometry" />
        </mxCell>
        <mxCell id="ZVzb3n2ahq-jDzYmaS63-9" value="Sélectionner dimensions" style="ellipse;whiteSpace=wrap;html=1;" vertex="1" parent="ZVzb3n2ahq-jDzYmaS63-6">
          <mxGeometry x="440" y="110" width="120" height="60" as="geometry" />
        </mxCell>
        <mxCell id="ZVzb3n2ahq-jDzYmaS63-10" value="Choisir matières et options" style="ellipse;whiteSpace=wrap;html=1;" vertex="1" parent="ZVzb3n2ahq-jDzYmaS63-6">
          <mxGeometry x="590" y="40" width="120" height="60" as="geometry" />
        </mxCell>
        <mxCell id="ZVzb3n2ahq-jDzYmaS63-11" value="Saisir informations client" style="ellipse;whiteSpace=wrap;html=1;" vertex="1" parent="ZVzb3n2ahq-jDzYmaS63-6">
          <mxGeometry x="530" y="370" width="120" height="60" as="geometry" />
        </mxCell>
        <mxCell id="ZVzb3n2ahq-jDzYmaS63-12" value="Calculer prix automatiquement" style="ellipse;whiteSpace=wrap;html=1;" vertex="1" parent="ZVzb3n2ahq-jDzYmaS63-6">
          <mxGeometry x="570" y="220" width="120" height="60" as="geometry" />
        </mxCell>
        <mxCell id="ZVzb3n2ahq-jDzYmaS63-13" value="Envoyer devis par email" style="ellipse;whiteSpace=wrap;html=1;" vertex="1" parent="ZVzb3n2ahq-jDzYmaS63-6">
          <mxGeometry x="340" y="260" width="120" height="60" as="geometry" />
        </mxCell>
        <mxCell id="ZVzb3n2ahq-jDzYmaS63-14" value="Ajouter au panier WooCommerce" style="ellipse;whiteSpace=wrap;html=1;" vertex="1" parent="ZVzb3n2ahq-jDzYmaS63-6">
          <mxGeometry x="670" y="330" width="120" height="60" as="geometry" />
        </mxCell>
        <mxCell id="ZVzb3n2ahq-jDzYmaS63-15" value="Recevoir email client" style="ellipse;whiteSpace=wrap;html=1;" vertex="1" parent="ZVzb3n2ahq-jDzYmaS63-6">
          <mxGeometry x="50" y="250" width="120" height="60" as="geometry" />
        </mxCell>
        <mxCell id="ZVzb3n2ahq-jDzYmaS63-16" value="Recevoir email commercial" style="ellipse;whiteSpace=wrap;html=1;" vertex="1" parent="ZVzb3n2ahq-jDzYmaS63-6">
          <mxGeometry x="70" y="350" width="120" height="60" as="geometry" />
        </mxCell>
        <mxCell id="ZVzb3n2ahq-jDzYmaS63-18" value="Configurer plugin" style="ellipse;whiteSpace=wrap;html=1;" vertex="1" parent="ZVzb3n2ahq-jDzYmaS63-6">
          <mxGeometry x="270" y="485" width="120" height="60" as="geometry" />
        </mxCell>
        <mxCell id="ZVzb3n2ahq-jDzYmaS63-19" value="Gérer templates email" style="ellipse;whiteSpace=wrap;html=1;" vertex="1" parent="ZVzb3n2ahq-jDzYmaS63-6">
          <mxGeometry x="160" y="430" width="120" height="60" as="geometry" />
        </mxCell>
        <mxCell id="ZVzb3n2ahq-jDzYmaS63-34" value="&amp;lt;&amp;lt;include&amp;gt;&amp;gt;" style="endArrow=open;endSize=12;dashed=1;html=1;rounded=0;entryX=0;entryY=0.5;entryDx=0;entryDy=0;" edge="1" parent="ZVzb3n2ahq-jDzYmaS63-6" target="ZVzb3n2ahq-jDzYmaS63-10">
          <mxGeometry width="160" relative="1" as="geometry">
            <mxPoint x="214" y="69.5" as="sourcePoint" />
            <mxPoint x="374" y="69.5" as="targetPoint" />
          </mxGeometry>
        </mxCell>
        <mxCell id="ZVzb3n2ahq-jDzYmaS63-29" value="&amp;lt;&amp;lt;include&amp;gt;&amp;gt;" style="endArrow=open;endSize=12;dashed=1;html=1;rounded=0;entryX=0.8;entryY=0.917;entryDx=0;entryDy=0;entryPerimeter=0;" edge="1" parent="ZVzb3n2ahq-jDzYmaS63-6" source="ZVzb3n2ahq-jDzYmaS63-11" target="ZVzb3n2ahq-jDzYmaS63-13">
          <mxGeometry width="160" relative="1" as="geometry">
            <mxPoint x="520" y="100" as="sourcePoint" />
            <mxPoint x="599" y="276" as="targetPoint" />
          </mxGeometry>
        </mxCell>
        <mxCell id="ZVzb3n2ahq-jDzYmaS63-31" value="&amp;lt;&amp;lt;extend&amp;gt;&amp;gt;" style="endArrow=open;endSize=12;dashed=1;html=1;rounded=0;exitX=0.8;exitY=0.983;exitDx=0;exitDy=0;exitPerimeter=0;entryX=0.5;entryY=0;entryDx=0;entryDy=0;" edge="1" parent="ZVzb3n2ahq-jDzYmaS63-6" source="ZVzb3n2ahq-jDzYmaS63-12" target="ZVzb3n2ahq-jDzYmaS63-14">
          <mxGeometry width="160" relative="1" as="geometry">
            <mxPoint x="200" y="200" as="sourcePoint" />
            <mxPoint x="750" y="260" as="targetPoint" />
          </mxGeometry>
        </mxCell>
        <mxCell id="ZVzb3n2ahq-jDzYmaS63-20" value="" style="endArrow=none;html=1;rounded=0;" edge="1" parent="1" source="ZVzb3n2ahq-jDzYmaS63-2" target="ZVzb3n2ahq-jDzYmaS63-7">
          <mxGeometry width="50" height="50" relative="1" as="geometry">
            <mxPoint x="100" y="200" as="sourcePoint" />
            <mxPoint x="250" y="180" as="targetPoint" />
          </mxGeometry>
        </mxCell>
        <mxCell id="ZVzb3n2ahq-jDzYmaS63-23" value="" style="endArrow=none;html=1;rounded=0;" edge="1" parent="1" source="ZVzb3n2ahq-jDzYmaS63-3" target="ZVzb3n2ahq-jDzYmaS63-15">
          <mxGeometry width="50" height="50" relative="1" as="geometry">
            <mxPoint x="100" y="300" as="sourcePoint" />
            <mxPoint x="250" y="380" as="targetPoint" />
          </mxGeometry>
        </mxCell>
        <mxCell id="ZVzb3n2ahq-jDzYmaS63-24" value="" style="endArrow=none;html=1;rounded=0;" edge="1" parent="1" source="ZVzb3n2ahq-jDzYmaS63-4" target="ZVzb3n2ahq-jDzYmaS63-16">
          <mxGeometry width="50" height="50" relative="1" as="geometry">
            <mxPoint x="100" y="440" as="sourcePoint" />
            <mxPoint x="400" y="380" as="targetPoint" />
          </mxGeometry>
        </mxCell>
        <mxCell id="ZVzb3n2ahq-jDzYmaS63-25" value="" style="endArrow=none;html=1;rounded=0;" edge="1" parent="1" source="ZVzb3n2ahq-jDzYmaS63-5" target="ZVzb3n2ahq-jDzYmaS63-18">
          <mxGeometry width="50" height="50" relative="1" as="geometry">
            <mxPoint x="100" y="570" as="sourcePoint" />
            <mxPoint x="700" y="480" as="targetPoint" />
          </mxGeometry>
        </mxCell>
        <mxCell id="ZVzb3n2ahq-jDzYmaS63-26" value="" style="endArrow=none;html=1;rounded=0;" edge="1" parent="1" source="ZVzb3n2ahq-jDzYmaS63-5" target="ZVzb3n2ahq-jDzYmaS63-19">
          <mxGeometry width="50" height="50" relative="1" as="geometry">
            <mxPoint x="100" y="570" as="sourcePoint" />
            <mxPoint x="850" y="480" as="targetPoint" />
          </mxGeometry>
        </mxCell>
        <mxCell id="ZVzb3n2ahq-jDzYmaS63-27" value="&amp;lt;&amp;lt;include&amp;gt;&amp;gt;" style="endArrow=open;endSize=12;dashed=1;html=1;rounded=0;" edge="1" parent="1" source="ZVzb3n2ahq-jDzYmaS63-7" target="ZVzb3n2ahq-jDzYmaS63-8">
          <mxGeometry width="160" relative="1" as="geometry">
            <mxPoint x="370" y="180" as="sourcePoint" />
            <mxPoint x="400" y="180" as="targetPoint" />
          </mxGeometry>
        </mxCell>
        <mxCell id="ZVzb3n2ahq-jDzYmaS63-28" value="&amp;lt;&amp;lt;include&amp;gt;&amp;gt;" style="endArrow=open;endSize=12;dashed=1;html=1;rounded=0;" edge="1" parent="1" source="ZVzb3n2ahq-jDzYmaS63-8" target="ZVzb3n2ahq-jDzYmaS63-9">
          <mxGeometry width="160" relative="1" as="geometry">
            <mxPoint x="540" y="180" as="sourcePoint" />
            <mxPoint x="570" y="180" as="targetPoint" />
          </mxGeometry>
        </mxCell>
        <mxCell id="ZVzb3n2ahq-jDzYmaS63-30" value="&amp;lt;&amp;lt;extend&amp;gt;&amp;gt;" style="endArrow=open;endSize=12;dashed=1;html=1;rounded=0;" edge="1" parent="1" source="ZVzb3n2ahq-jDzYmaS63-13" target="ZVzb3n2ahq-jDzYmaS63-12">
          <mxGeometry width="160" relative="1" as="geometry">
            <mxPoint x="200" y="280" as="sourcePoint" />
            <mxPoint x="170" y="280" as="targetPoint" />
          </mxGeometry>
        </mxCell>
        <mxCell id="ZVzb3n2ahq-jDzYmaS63-32" value="&amp;lt;&amp;lt;include&amp;gt;&amp;gt;" style="endArrow=open;endSize=12;dashed=1;html=1;rounded=0;" edge="1" parent="1" source="ZVzb3n2ahq-jDzYmaS63-13" target="ZVzb3n2ahq-jDzYmaS63-15">
          <mxGeometry width="160" relative="1" as="geometry">
            <mxPoint x="260" y="280" as="sourcePoint" />
            <mxPoint x="170" y="380" as="targetPoint" />
          </mxGeometry>
        </mxCell>
        <mxCell id="ZVzb3n2ahq-jDzYmaS63-33" value="&amp;lt;&amp;lt;include&amp;gt;&amp;gt;" style="endArrow=open;endSize=12;dashed=1;html=1;rounded=0;" edge="1" parent="1" source="ZVzb3n2ahq-jDzYmaS63-13" target="ZVzb3n2ahq-jDzYmaS63-16">
          <mxGeometry width="160" relative="1" as="geometry">
            <mxPoint x="320" y="280" as="sourcePoint" />
            <mxPoint x="320" y="380" as="targetPoint" />
          </mxGeometry>
        </mxCell>
      </root>
    </mxGraphModel>
  </diagram>
</mxfile>
